<svg width="88" height="86" viewBox="0 0 88 86" fill="none" xmlns="http://www.w3.org/2000/svg">
<g clip-path="url(#clip0_28_2414)">
<path d="M62.5026 52.839L60.6901 52.848C59.8403 52.8521 59.0922 52.4484 58.6378 51.7398C58.1825 51.0326 58.1319 50.1909 58.4968 49.4309L59.308 47.7412C59.5691 47.1972 59.3901 46.5478 58.8853 46.2134L56.0591 44.3359C55.57 44.0108 54.9131 44.0765 54.4958 44.4898L53.2138 45.7603C52.614 46.359 51.7908 46.5971 50.9601 46.4153C50.1312 46.2356 49.4914 45.6782 49.2057 44.8872L48.5719 43.1327C48.3692 42.5685 47.7772 42.2373 47.1803 42.3534L43.8268 43.0052C43.2468 43.118 42.826 43.6224 42.8264 44.2061L42.8259 46.5177C42.8259 47.3383 42.4266 48.0703 41.7323 48.525C41.0372 48.9824 40.1999 49.0572 39.4365 48.737L37.2864 47.8362C36.7435 47.6096 36.1122 47.7942 35.7793 48.2791L33.8622 51.0786C33.5194 51.5778 33.5965 52.2457 34.0427 52.6536L35.4277 53.9163C36.0507 54.4843 36.3191 55.2836 36.1619 56.1099C36.0061 56.9372 35.4636 57.5917 34.6742 57.9062L32.9903 58.5769C32.4422 58.795 32.125 59.3673 32.2364 59.9406L32.8794 63.2488C32.9939 63.8376 33.5272 64.2545 34.1355 64.2292L36.0237 64.151C36.875 64.1156 37.6379 64.4916 38.1187 65.1815C38.5998 65.8726 38.6825 66.7117 38.3468 67.4859L37.6317 69.1333C37.398 69.6696 37.5834 70.2941 38.0726 70.6192L40.8978 72.4981C41.4 72.8318 42.077 72.7535 42.4937 72.3118L43.7796 70.9377C44.3568 70.3198 45.1712 70.05 46.0048 70.2015C46.8418 70.3512 47.5018 70.8835 47.8164 71.6614L48.487 73.3208C48.7048 73.8598 49.2828 74.1701 49.8639 74.0571L53.2175 73.4053C53.8143 73.2893 54.2392 72.7605 54.2167 72.16L54.1681 70.8494C54.1355 70.0031 54.5448 69.2195 55.259 68.751C55.9758 68.2819 56.8652 68.2169 57.6386 68.576L58.8388 69.1334C59.3896 69.3883 60.048 69.207 60.3883 68.7083L62.304 65.9079C62.6357 65.4232 62.5739 64.7758 62.1561 64.365L60.876 63.1054C60.2749 62.5146 60.037 61.7043 60.2242 60.8834C60.4104 60.0639 60.9781 59.4292 61.7806 59.1431L63.5607 58.5083C64.1328 58.3041 64.4712 57.7178 64.3567 57.129L63.7137 53.8208C63.6025 53.2487 63.094 52.8369 62.5026 52.839ZM61.7364 56.5761L60.9528 56.8561C59.3619 57.4232 58.1906 58.7341 57.8198 60.3617C57.4479 61.9907 57.9387 63.6627 59.1316 64.8352L59.6924 65.3868L58.9409 66.4847L58.6964 66.3711C57.1361 65.6482 55.3475 65.7802 53.9039 66.7239C52.4617 67.6686 51.6406 69.2486 51.7037 70.9504L51.7144 71.2186L50.3996 71.4741L50.1062 70.7466C49.4801 69.2 48.1155 68.1006 46.4571 67.8033C44.7962 67.5064 43.1202 68.0627 41.9712 69.2875L41.4052 69.8921L40.2971 69.1556L40.6104 68.4341C41.277 66.899 41.1045 65.1651 40.1509 63.7949C39.1974 62.4248 37.6191 61.6483 35.9328 61.7183L35.1016 61.7534L34.8495 60.4564L35.5878 60.1629C37.1572 59.5368 38.2775 58.1838 38.5871 56.5445C38.8964 54.9041 38.3428 53.2517 37.1068 52.1224L36.4975 51.5666L37.249 50.4686L38.465 50.9784C39.981 51.6158 41.7123 51.454 43.0899 50.5516C44.4684 49.6478 45.2926 48.1354 45.2936 46.5053L45.2923 45.1992L46.6071 44.9437L46.8866 45.716C47.4528 47.2842 48.7744 48.434 50.4208 48.792C52.0686 49.1509 53.7644 48.6577 54.9578 47.4738L55.5193 46.9172L56.6274 47.6537L56.2706 48.3973C55.5462 49.9065 55.6531 51.6457 56.5547 53.052C57.4558 54.4559 59.0026 55.2905 60.6911 55.2833L61.4843 55.2791L61.7364 56.5761Z" fill="white"/>
<path d="M47.0827 52.2879C43.7448 52.9368 41.55 56.1434 42.1901 59.4362C42.8301 62.7289 46.0663 64.8799 49.4042 64.2311C52.742 63.5823 54.9368 60.3756 54.2968 57.0829C53.6567 53.7901 50.4205 51.6391 47.0827 52.2879ZM48.9399 61.8425C46.9374 62.2317 44.9954 60.9409 44.6114 58.9655C44.2274 56.9901 45.5445 55.0658 47.547 54.6766C49.5494 54.2873 51.4915 55.5781 51.8754 57.5535C52.2594 59.5289 50.9423 61.4532 48.9399 61.8425Z" fill="white"/>
<path d="M67.133 26.321C64.4032 15.6967 53.7511 8.85073 42.9228 10.9555C36.3488 12.2334 30.6013 16.6512 27.6669 22.607C27.567 22.578 27.4651 22.5644 27.3647 22.5393C27.1027 22.4712 26.8383 22.4098 26.571 22.3602C26.4226 22.3332 26.275 22.3111 26.1265 22.2904C25.8643 22.2534 25.6003 22.2266 25.3328 22.2079C25.1864 22.198 25.0409 22.1866 24.8944 22.1828C24.6102 22.1749 24.3227 22.1824 24.0337 22.1952C23.9079 22.2011 23.7834 22.2005 23.6574 22.2114C23.2469 22.2453 22.8347 22.2969 22.4219 22.3771C16.4133 23.5451 12.463 29.3166 13.6152 35.2439C13.6451 35.398 13.6841 35.5466 13.7242 35.695C9.2141 39.3815 6.85815 45.728 7.96203 51.4069C9.60636 59.8663 17.9201 65.3931 26.4953 63.7263C27.1649 63.5961 27.6023 62.9571 27.4739 62.2966C27.3455 61.6362 26.7005 61.2075 26.031 61.3376C18.7912 62.7449 11.7719 58.0795 10.3834 50.9363C9.41902 45.9751 11.6929 40.1887 15.7914 37.1771L16.4149 36.72L16.2687 35.9676C16.2408 35.8243 16.2222 35.6767 16.2021 35.5281L16.1725 35.3046L16.1117 35.076C16.0847 34.9759 16.0565 34.876 16.0365 34.7733C15.1407 30.1644 18.2142 25.6739 22.8862 24.7658C23.2603 24.6931 23.6358 24.6535 24.0119 24.63C24.1087 24.6236 24.2061 24.6207 24.3024 24.6182C24.6358 24.6079 24.9677 24.6152 25.2987 24.6439C25.3434 24.6476 25.3886 24.6475 25.4333 24.6512C25.7985 24.688 26.1606 24.754 26.5187 24.838C26.6121 24.8596 26.7038 24.8851 26.7964 24.9093C27.1146 24.9949 27.4293 25.0949 27.7382 25.217C30.3609 26.254 32.4144 28.5382 32.986 31.4786C33.1143 32.1391 33.7593 32.5678 34.4288 32.4376C35.0983 32.3075 35.5357 31.6684 35.4073 31.008C34.768 27.7188 32.6872 25.0681 29.938 23.5549C32.5385 18.4015 37.7018 14.4493 43.3871 13.3442C52.7638 11.5215 61.9763 17.3348 64.5885 26.4364C63.3357 26.5906 61.4736 26.9067 59.6741 27.5453C59.0324 27.7729 58.6968 28.4703 58.924 29.1028C59.1297 29.6764 59.7279 30.0001 60.3163 29.8857C60.3768 29.874 60.4376 29.8572 60.4963 29.8359C63.1157 28.9103 65.9976 28.7405 66.1666 28.7312C72.009 28.6925 77.2541 32.9888 78.371 38.7347C79.6546 45.338 75.2522 51.77 68.5584 53.0712C67.8889 53.2013 67.4515 53.8404 67.5799 54.5008C67.7082 55.1613 68.3532 55.5899 69.0227 55.4598C77.0519 53.8991 82.332 46.1847 80.7924 38.264C79.5181 31.7084 73.742 26.7294 67.133 26.321Z" fill="white"/>
</g>
<defs>
<clipPath id="clip0_28_2414">
<rect width="74" height="73" fill="white" transform="translate(0.729492 14.1993) rotate(-11)"/>
</clipPath>
</defs>
</svg>
