<svg width="40" height="40" viewBox="0 0 40 40" fill="none" xmlns="http://www.w3.org/2000/svg">
<path d="M28.3096 0H10.79C4.84038 0 0 4.84061 0 10.7902V28.3098C0 34.2596 4.84038 39.1 10.79 39.1H28.3096C34.2596 39.1 39.1 34.2594 39.1 28.3098V10.7902C39.1002 4.84061 34.2596 0 28.3096 0ZM35.6311 28.3098C35.6311 32.3467 32.3467 35.6309 28.3098 35.6309H10.79C6.75326 35.6311 3.46914 32.3467 3.46914 28.3098V10.7902C3.46914 6.75349 6.75326 3.46914 10.79 3.46914H28.3096C32.3465 3.46914 35.6309 6.75349 35.6309 10.7902V28.3098H35.6311Z" fill="white"/>
<path d="M19.5497 9.47559C13.9942 9.47559 9.47461 13.9952 9.47461 19.5507C9.47461 25.1059 13.9942 29.6253 19.5497 29.6253C25.1052 29.6253 29.6248 25.1059 29.6248 19.5507C29.6248 13.9952 25.1052 9.47559 19.5497 9.47559ZM19.5497 26.1559C15.9073 26.1559 12.9438 23.1928 12.9438 19.5504C12.9438 15.9078 15.9071 12.9445 19.5497 12.9445C23.1923 12.9445 26.1556 15.9078 26.1556 19.5504C26.1556 23.1928 23.1921 26.1559 19.5497 26.1559Z" fill="white"/>
<path d="M30.0479 6.53369C29.3796 6.53369 28.723 6.80428 28.2509 7.2784C27.7766 7.7502 27.5039 8.40703 27.5039 9.07773C27.5039 9.74635 27.7768 10.4029 28.2509 10.8771C28.7227 11.3489 29.3796 11.6218 30.0479 11.6218C30.7186 11.6218 31.3732 11.3489 31.8473 10.8771C32.3214 10.4029 32.592 9.74612 32.592 9.07773C32.592 8.40703 32.3214 7.7502 31.8473 7.2784C31.3755 6.80428 30.7186 6.53369 30.0479 6.53369Z" fill="white"/>
</svg>
