<svg width="43" height="38" viewBox="0 0 43 38" fill="none" xmlns="http://www.w3.org/2000/svg">
<path d="M41.5507 0.926232C41.2214 0.641685 40.8204 0.452727 40.3914 0.379849C39.9623 0.306971 39.5215 0.352955 39.1167 0.512813L2.34943 14.9571C1.8688 15.146 1.46223 15.4853 1.19056 15.9245C0.918887 16.3636 0.796729 16.879 0.842362 17.3933C0.887995 17.9077 1.09897 18.3935 1.4437 18.7779C1.78844 19.1624 2.24841 19.4249 2.75478 19.5261L12.7345 21.5222V33.8405C12.7295 34.3144 12.8677 34.7788 13.131 35.1729C13.3943 35.5669 13.7705 35.8723 14.2102 36.049C14.5048 36.1724 14.8209 36.2363 15.1403 36.2372C15.4524 36.2362 15.7612 36.1732 16.0488 36.052C16.3363 35.9307 16.597 35.7536 16.8156 35.5308L22.5125 29.8339L30.9182 37.2309C31.3513 37.6156 31.9103 37.8284 32.4896 37.829C32.7415 37.8287 32.9917 37.789 33.2313 37.7113C33.6263 37.586 33.9817 37.3593 34.2618 37.0538C34.5419 36.7483 34.737 36.3747 34.8276 35.9703L42.321 3.27191C42.4188 2.84785 42.3988 2.40511 42.263 1.99164C42.1272 1.57817 41.8809 1.20973 41.5507 0.926232ZM2.42988 17.2524C2.41006 17.0803 2.44887 16.9065 2.54004 16.7591C2.63122 16.6118 2.76942 16.4995 2.93231 16.4404L36.6352 3.19988L13.3465 20.0194L3.06732 17.9635C2.89657 17.934 2.74077 17.8477 2.6251 17.7187C2.50943 17.5897 2.44065 17.4254 2.42988 17.2524ZM15.6885 34.4039C15.5771 34.5154 15.4351 34.5913 15.2805 34.622C15.126 34.6528 14.9658 34.637 14.8202 34.5767C14.6745 34.5164 14.5501 34.4143 14.4625 34.2832C14.375 34.1522 14.3282 33.9981 14.3282 33.8405V22.6317L21.3136 28.7789L15.6885 34.4039ZM40.7675 2.91589L33.2742 35.6142C33.2433 35.7488 33.178 35.873 33.0847 35.9747C32.9915 36.0765 32.8733 36.1522 32.742 36.1946C32.6106 36.237 32.4705 36.2445 32.3353 36.2164C32.2001 36.1883 32.0746 36.1256 31.971 36.0345L14.8074 20.9304L40.6387 2.27456C40.7067 2.36508 40.7535 2.46966 40.7758 2.58063C40.7981 2.6916 40.7953 2.80615 40.7675 2.91589Z" fill="white"/>
</svg>
